# xmcd CD database file
#
# Track frame offsets:
#	150
#	15188
#	30082
#	51032
#	67429
#	86341
#	106375
#	122935
#	137058
#	161055
#	189525
#	205209
#
# Disc length: 3118 seconds
#
# Revision: 0
# Processed by: cddbd v1.5.2PL0 Copyright (c) Steve Scherf et al.
# Submitted via: CDex 1.51
#
DISCID=9e0c2c0c
DTITLE=Jay Gordon - Extremely Dangerous Blues
DYEAR=2001
DGENRE=Blues
TTITLE0=Boogie In The Wine
TTITLE1=Upside The Head
TTITLE2=Drippin' Blues
TTITLE3=Lucky
TTITLE4=Can't Shake This Feelin'
TTITLE5=Message To Collins
TTITLE6=El Diablo's Blues
TTITLE7=Midnight Lamp
TTITLE8=Savage Resurrection
TTITLE9=Jaywalkin
TTITLE10=Voodoo Boogie
TTITLE11=Blues Infested
EXTD=YEAR: 2001
EXTT0=
EXTT1=
EXTT2=
EXTT3=
EXTT4=
EXTT5=
EXTT6=
EXTT7=
EXTT8=
EXTT9=
EXTT10=
EXTT11=
PLAYORDER=
